<svg width="162" height="95" viewBox="0 0 162 95" fill="none" xmlns="http://www.w3.org/2000/svg">
<path d="M38.912 93H38.096L40.208 87.216H41.08L43.2 93H42.376L41.856 91.56H39.424L38.912 93ZM40.544 88.464L39.664 90.88H41.624L40.736 88.464C40.696 88.352 40.656 88.216 40.64 88.128C40.624 88.208 40.584 88.344 40.544 88.464Z" fill="#111827"/>
<path d="M7.196 80.556C7.196 79.66 7.66 79.052 8.388 79.052C9.112 79.052 9.576 79.66 9.576 80.556C9.576 81.456 9.132 82.052 8.388 82.052C7.64 82.052 7.196 81.456 7.196 80.556ZM7.584 80.556C7.584 81.268 7.88 81.7 8.388 81.7C8.896 81.7 9.188 81.268 9.188 80.556C9.188 79.836 8.896 79.404 8.388 79.404C7.88 79.404 7.584 79.836 7.584 80.556Z" fill="#C7BCE1"/>
<path d="M4.136 67.996L2.184 68V67.7L3.116 66.896C3.584 66.492 3.716 66.296 3.716 65.988C3.716 65.624 3.508 65.408 3.16 65.408C2.804 65.408 2.572 65.668 2.564 66.08H2.172C2.184 65.46 2.576 65.056 3.164 65.056C3.744 65.056 4.116 65.408 4.116 65.964C4.116 66.376 3.912 66.668 3.4 67.112L2.8 67.632H4.136V67.996ZM4.49678 66.556C4.49678 65.66 4.96078 65.052 5.68878 65.052C6.41278 65.052 6.87678 65.66 6.87678 66.556C6.87678 67.456 6.43278 68.052 5.68878 68.052C4.94078 68.052 4.49678 67.456 4.49678 66.556ZM4.88478 66.556C4.88478 67.268 5.18078 67.7 5.68878 67.7C6.19678 67.7 6.48878 67.268 6.48878 66.556C6.48878 65.836 6.19678 65.404 5.68878 65.404C5.18078 65.404 4.88478 65.836 4.88478 66.556ZM7.27022 66.556C7.27022 65.66 7.73422 65.052 8.46222 65.052C9.18622 65.052 9.65022 65.66 9.65022 66.556C9.65022 67.456 9.20622 68.052 8.46222 68.052C7.71422 68.052 7.27022 67.456 7.27022 66.556ZM7.65822 66.556C7.65822 67.268 7.95422 67.7 8.46222 67.7C8.97022 67.7 9.26222 67.268 9.26222 66.556C9.26222 65.836 8.97022 65.404 8.46222 65.404C7.95422 65.404 7.65822 65.836 7.65822 66.556Z" fill="#C7BCE1"/>
<path d="M3.352 50.416H3.008V51H2.632V50.416H1.136V50.068L2.5 48.108H3.008V50.068H3.352V50.416ZM1.56 50.068H2.632V48.524L1.56 50.068ZM3.73897 49.556C3.73897 48.66 4.20297 48.052 4.93097 48.052C5.65497 48.052 6.11897 48.66 6.11897 49.556C6.11897 50.456 5.67497 51.052 4.93097 51.052C4.18297 51.052 3.73897 50.456 3.73897 49.556ZM4.12697 49.556C4.12697 50.268 4.42297 50.7 4.93097 50.7C5.43897 50.7 5.73097 50.268 5.73097 49.556C5.73097 48.836 5.43897 48.404 4.93097 48.404C4.42297 48.404 4.12697 48.836 4.12697 49.556ZM6.51241 49.556C6.51241 48.66 6.97641 48.052 7.70441 48.052C8.42841 48.052 8.89241 48.66 8.89241 49.556C8.89241 50.456 8.44841 51.052 7.70441 51.052C6.95641 51.052 6.51241 50.456 6.51241 49.556ZM6.90041 49.556C6.90041 50.268 7.19641 50.7 7.70441 50.7C8.21241 50.7 8.50441 50.268 8.50441 49.556C8.50441 48.836 8.21241 48.404 7.70441 48.404C7.19641 48.404 6.90041 48.836 6.90041 49.556Z" fill="#C7BCE1"/>
<path d="M2.564 32.024L3.24 31.108H3.696L2.972 32.068C3.072 32.028 3.176 32.008 3.276 32.008C3.876 32.008 4.28 32.44 4.28 33.012C4.28 33.616 3.824 34.048 3.228 34.048C2.628 34.048 2.164 33.596 2.164 33.012C2.164 32.668 2.268 32.428 2.564 32.024ZM2.564 33.016C2.564 33.412 2.836 33.696 3.228 33.696C3.612 33.696 3.884 33.412 3.884 33.016C3.884 32.62 3.612 32.34 3.228 32.34C2.836 32.34 2.564 32.62 2.564 33.016ZM4.64131 32.556C4.64131 31.66 5.10531 31.052 5.83331 31.052C6.55731 31.052 7.02131 31.66 7.02131 32.556C7.02131 33.456 6.57731 34.052 5.83331 34.052C5.08531 34.052 4.64131 33.456 4.64131 32.556ZM5.02931 32.556C5.02931 33.268 5.32531 33.7 5.83331 33.7C6.34131 33.7 6.63331 33.268 6.63331 32.556C6.63331 31.836 6.34131 31.404 5.83331 31.404C5.32531 31.404 5.02931 31.836 5.02931 32.556ZM7.41475 32.556C7.41475 31.66 7.87875 31.052 8.60675 31.052C9.33075 31.052 9.79475 31.66 9.79475 32.556C9.79475 33.456 9.35075 34.052 8.60675 34.052C7.85875 34.052 7.41475 33.456 7.41475 32.556ZM7.80275 32.556C7.80275 33.268 8.09875 33.7 8.60675 33.7C9.11475 33.7 9.40675 33.268 9.40675 32.556C9.40675 31.836 9.11475 31.404 8.60675 31.404C8.09875 31.404 7.80275 31.836 7.80275 32.556Z" fill="#C7BCE1"/>
<path d="M1.188 16.196C1.188 15.848 1.392 15.568 1.712 15.452C1.44 15.336 1.292 15.108 1.292 14.816C1.292 14.364 1.68 14.056 2.256 14.056C2.824 14.056 3.208 14.364 3.208 14.82C3.208 15.116 3.056 15.344 2.784 15.452C3.108 15.556 3.316 15.844 3.316 16.2C3.316 16.708 2.892 17.048 2.252 17.048C1.608 17.048 1.188 16.708 1.188 16.196ZM1.652 14.84C1.652 15.124 1.888 15.308 2.248 15.308C2.612 15.308 2.84 15.128 2.84 14.848C2.84 14.572 2.612 14.396 2.248 14.396C1.888 14.396 1.652 14.572 1.652 14.84ZM1.572 16.168C1.572 16.492 1.84 16.7 2.252 16.7C2.66 16.7 2.928 16.492 2.928 16.168C2.928 15.848 2.664 15.644 2.248 15.644C1.836 15.644 1.572 15.848 1.572 16.168ZM3.696 15.556C3.696 14.66 4.16 14.052 4.888 14.052C5.612 14.052 6.076 14.66 6.076 15.556C6.076 16.456 5.632 17.052 4.888 17.052C4.14 17.052 3.696 16.456 3.696 15.556ZM4.084 15.556C4.084 16.268 4.38 16.7 4.888 16.7C5.396 16.7 5.688 16.268 5.688 15.556C5.688 14.836 5.396 14.404 4.888 14.404C4.38 14.404 4.084 14.836 4.084 15.556ZM6.46944 15.556C6.46944 14.66 6.93344 14.052 7.66144 14.052C8.38544 14.052 8.84944 14.66 8.84944 15.556C8.84944 16.456 8.40544 17.052 7.66144 17.052C6.91344 17.052 6.46944 16.456 6.46944 15.556ZM6.85744 15.556C6.85744 16.268 7.15344 16.7 7.66144 16.7C8.16944 16.7 8.46144 16.268 8.46144 15.556C8.46144 14.836 8.16944 14.404 7.66144 14.404C7.15344 14.404 6.85744 14.836 6.85744 15.556Z" fill="#C7BCE1"/>
<path d="M0.748 1.46H0.14V1.108H1.124V4H0.748V1.46ZM1.65303 2.556C1.65303 1.66 2.11703 1.052 2.84503 1.052C3.56903 1.052 4.03303 1.66 4.03303 2.556C4.03303 3.456 3.58903 4.052 2.84503 4.052C2.09703 4.052 1.65303 3.456 1.65303 2.556ZM2.04103 2.556C2.04103 3.268 2.33703 3.7 2.84503 3.7C3.35303 3.7 3.64503 3.268 3.64503 2.556C3.64503 1.836 3.35303 1.404 2.84503 1.404C2.33703 1.404 2.04103 1.836 2.04103 2.556ZM4.42647 2.556C4.42647 1.66 4.89047 1.052 5.61847 1.052C6.34247 1.052 6.80647 1.66 6.80647 2.556C6.80647 3.456 6.36247 4.052 5.61847 4.052C4.87047 4.052 4.42647 3.456 4.42647 2.556ZM4.81447 2.556C4.81447 3.268 5.11047 3.7 5.61847 3.7C6.12647 3.7 6.41847 3.268 6.41847 2.556C6.41847 1.836 6.12647 1.404 5.61847 1.404C5.11047 1.404 4.81447 1.836 4.81447 2.556ZM7.19991 2.556C7.19991 1.66 7.66391 1.052 8.39191 1.052C9.11591 1.052 9.57991 1.66 9.57991 2.556C9.57991 3.456 9.13591 4.052 8.39191 4.052C7.64391 4.052 7.19991 3.456 7.19991 2.556ZM7.58791 2.556C7.58791 3.268 7.88391 3.7 8.39191 3.7C8.89991 3.7 9.19191 3.268 9.19191 2.556C9.19191 1.836 8.89991 1.404 8.39191 1.404C7.88391 1.404 7.58791 1.836 7.58791 2.556Z" fill="#C7BCE1"/>
<path d="M142.584 93H140.672V87.216H142.552C144.28 87.216 145.448 88.384 145.448 90.112C145.448 91.832 144.296 93 142.584 93ZM142.496 87.936H141.456V92.272H142.528C143.816 92.272 144.632 91.44 144.632 90.112C144.632 88.768 143.816 87.936 142.496 87.936Z" fill="#111827"/>
<path d="M109.072 93.088C107.424 93.088 106.328 91.904 106.328 90.112C106.328 88.328 107.456 87.12 109.112 87.12C110.416 87.12 111.416 87.896 111.632 89.08H110.792C110.576 88.328 109.928 87.872 109.088 87.872C107.92 87.872 107.152 88.752 107.152 90.104C107.152 91.456 107.92 92.336 109.088 92.336C109.936 92.336 110.608 91.88 110.824 91.168H111.656C111.408 92.32 110.376 93.088 109.072 93.088Z" fill="#111827"/>
<path d="M72.672 93V87.216H74.88C76.008 87.216 76.696 87.792 76.696 88.744C76.696 89.408 76.408 89.856 75.832 90.096C76.472 90.304 76.8 90.768 76.8 91.456C76.8 92.416 76.104 93 74.96 93H72.672ZM74.832 87.912H73.456V89.768H74.88C75.528 89.768 75.896 89.416 75.896 88.816C75.896 88.24 75.512 87.912 74.832 87.912ZM74.944 90.448H73.456V92.304H74.944C75.616 92.304 75.992 91.96 75.992 91.36C75.992 90.784 75.608 90.448 74.944 90.448Z" fill="#111827"/>
<line x1="17" y1="80.5" x2="162" y2="80.5" stroke="black"/>
<rect x="32" y="36" width="18" height="44" fill="#DCD5EC"/>
<rect x="66" y="52" width="18" height="28" fill="#D6CEE9"/>
<rect x="100" y="4" width="18" height="76" fill="#C7BCE1"/>
<rect x="134" y="30" width="18" height="50" fill="#181127"/>
</svg>
