<?xml version="1.0" encoding="UTF-8"?>
<svg id="Lager_1" data-name="Lager 1" xmlns="http://www.w3.org/2000/svg" viewBox="0 0 1200 297.28">
  <defs>
    <style>
      .cls-1 {
        isolation: isolate;
      }

      .cls-2 {
        fill: #fb5da5;
      }

      .cls-2, .cls-3, .cls-4 {
        strokeWidth: 0px;
      }

      .cls-3 {
        fill: #121826;
      }

      .cls-4 {
        fill: #fff;
      }
    </style>
  </defs>
  <path id="Rectangle_14" data-name="Rectangle 14" class="cls-2" d="m104.11,171.94h0c17.31,0,31.34,14.03,31.34,31.34v62.67c0,17.31-14.03,31.34-31.34,31.34h0c-17.31,0-31.34-14.03-31.34-31.34v-62.67c0-17.31,14.03-31.34,31.34-31.34Z"/>
  <path id="Rectangle_15" data-name="Rectangle 15" class="cls-2" d="m30.32,232.58h0c16.75,0,30.32,13.58,30.32,30.32v4.04c0,16.75-13.58,30.32-30.32,30.32h0c-16.75,0-30.32-13.58-30.32-30.32v-4.04c0-16.75,13.58-30.32,30.32-30.32Z"/>
  <path id="Rectangle_16" data-name="Rectangle 16" class="cls-2" d="m180.93,137.57h0c17.31,0,31.34,14.03,31.34,31.34v97.04c0,17.31-14.03,31.34-31.34,31.34h0c-17.31,0-31.34-14.03-31.34-31.34v-97.04c0-17.31,14.03-31.34,31.34-31.34Z"/>
  <g id="Fibbler">
    <g class="cls-1">
      <path class="cls-4" d="m439.48,77.13v38.81h-73.26v26.44h63.56v38.33h-63.56v58.95h-46.58V77.13h119.84Z"/>
      <path class="cls-4" d="m485.33,58.93c13.34,0,22.56,8.25,22.56,18.44v1.7c0,10.67-9.22,18.68-22.56,18.68h-3.88c-13.1,0-22.32-8.01-22.32-18.68v-1.7c0-10.19,9.22-18.44,22.32-18.44h3.88Zm20.86,54.58v126.14h-45.36v-126.14h45.36Z"/>
      <path class="cls-4" d="m578.48,60.15v66.47h5.09c7.76-8.97,18.44-15.53,35.66-15.53h3.88c28.62,0,46.58,16.74,46.58,54.82v21.35c0,38.08-17.95,54.82-46.58,54.82h-3.88c-17.47,0-28.14-6.55-35.66-16.5h-5.09v14.07h-45.36V60.15h45.36Zm0,105.04v22.8c0,12.13,8.49,18.19,21.1,18.19h3.64c12.37,0,21.1-6.06,21.1-18.19v-22.8c0-12.13-8.73-18.19-21.1-18.19h-3.64c-12.61,0-21.1,6.06-21.1,18.19Z"/>
      <path class="cls-4" d="m739.32,60.15v66.47h5.09c7.76-8.97,18.44-15.53,35.66-15.53h3.88c28.62,0,46.58,16.74,46.58,54.82v21.35c0,38.08-17.95,54.82-46.58,54.82h-3.88c-17.47,0-28.14-6.55-35.66-16.5h-5.09v14.07h-45.36V60.15h45.36Zm0,105.04v22.8c0,12.13,8.49,18.19,21.1,18.19h3.64c12.37,0,21.1-6.06,21.1-18.19v-22.8c0-12.13-8.73-18.19-21.1-18.19h-3.64c-12.61,0-21.1,6.06-21.1,18.19Z"/>
      <path class="cls-4" d="m900.16,60.15v179.51h-45.36V60.15h45.36Z"/>
      <path class="cls-4" d="m994.04,111.09c39.3,0,64.04,18.44,64.04,55.31v20.62h-90.49v4.61c0,13.83,8.49,19.41,22.56,19.41h3.88c11.4,0,19.65-3.15,21.59-14.8h41.73c-1.7,27.41-22.08,45.85-63.31,45.85h-3.88c-39.06,0-65.5-17.95-65.5-54.58v-21.1c0-36.87,26.2-55.31,65.5-55.31h3.88Zm-26.44,48.03h47.79c-.49-11.16-8.98-16.98-21.83-16.98h-3.88c-14.8,0-22.08,6.06-22.08,16.98Z"/>
      <path class="cls-4" d="m1127.71,113.52v14.07h5.09c6.31-11.16,17.22-16.5,31.78-16.5,23.29,0,35.42,11.4,35.42,46.58v11.16h-41.72v-6.55c0-8.73-5.09-13.34-15.28-13.34s-15.28,4.61-15.28,13.34v77.38h-45.36v-126.14h45.36Z"/>
    </g>
  </g>
  <path class="cls-4" d="m260.91,73.62c-3.69-5.37-10.46-13.77-21.41-20.92-9.93-6.49-19.35-9.36-25.47-10.72,2.52-2.04,6.13-4.49,10.89-6.36,8.5-3.35,16.12-3.05,20.24-2.58-3.68-3.64-11.57-10.46-23.74-14.17-11.42-3.48-21.16-2.57-26.22-1.73l-1.42.34c.74-2.24,2.19-5.67,5.04-9.12,3.43-4.16,7.27-6.39,9.54-7.49-6.08-.75-13.24-1.15-21.22-.66-3.59.22-11.34.87-20.97,3.24-5.19,1.28-10.25,2.9-15.14,4.82-.31.1-.65.2-1.01.28-1,.24-1.91.33-2.7.34h-.01s-.02,0-.02,0c-.79-.01-1.7-.1-2.7-.34-.36-.08-.69-.18-1.01-.28-4.89-1.92-9.94-3.54-15.14-4.82C118.82,1.08,111.08.44,107.48.22c-7.98-.49-15.14-.09-21.22.66,2.27,1.1,6.11,3.33,9.54,7.49,2.85,3.45,4.29,6.88,5.04,9.12l-1.42-.34c-5.06-.83-14.8-1.75-26.22,1.73-12.17,3.71-20.06,10.53-23.74,14.17,4.12-.48,11.74-.77,20.24,2.58,4.75,1.87,8.37,4.33,10.89,6.36-6.13,1.36-15.54,4.23-25.47,10.72-10.95,7.15-17.71,15.55-21.41,20.92,3.73-.49,8.82-.77,14.74.08,4.9.7,8.99,1.98,12.11,3.21-3.74,4.05-9.01,10.71-13,20.12-3.81,9-4.98,17.05-5.34,22.44,2.45-1.75,5.84-3.82,10.15-5.52,4.15-1.64,7.91-2.43,10.82-2.84-.34,6.96-.21,15.4,1.08,24.87,1.22,8.99,3.19,16.79,5.24,23.19l.34,1.02.33-.6c2.12-3.19,4.41-6.27,6.85-9.2l.3-.33.23.51c6.37,12.48,15.05,23.64,25.53,32.85l1.34,1.14.42-1.01c1.56-3.82,3.73-7.33,6.39-10.4l.33-.39.13.23c3.6,5.58,8.72,12.4,15.81,19.29,7.11,6.91,14.1,11.85,19.79,15.3,0,0,0,0,0,0,5.69-3.45,12.68-8.38,19.8-15.3,7.09-6.89,12.2-13.71,15.81-19.29l.13-.23.33.39c2.66,3.07,4.83,6.58,6.39,10.4l.42,1.01,1.34-1.14c10.48-9.22,19.16-20.37,25.53-32.85l.23-.51.3.33c2.44,2.94,4.73,6.01,6.85,9.2l.33.6.34-1.02c2.05-6.39,4.02-14.19,5.24-23.19,1.28-9.47,1.41-17.91,1.08-24.87,2.92.4,6.67,1.2,10.82,2.84,4.31,1.7,7.7,3.77,10.15,5.52-.36-5.39-1.53-13.44-5.34-22.44-3.99-9.42-9.26-16.08-13-20.12,3.12-1.23,7.21-2.5,12.11-3.21,5.92-.85,11.01-.57,14.74-.08Z"/>
  <path class="cls-2" d="m207.77,85.32c-.26-4-.73-10.37-4.56-17.45-4.39-8.13-10.54-12.29-11.85-13.15-8.86-5.82-17.78-5.77-21.09-5.76-4.21.02-7.69.81-8.26.94-5.11,1.18-9.82,3.43-13.88,6.49h0c-.09.06-.23.14-.42.19-.33.09-.61.03-.73,0-.12-.03-.3-.08-.49-.2-2.71-2.03-7.4-5-13.88-6.49-.57-.13-4.05-.92-8.26-.94-3.31-.02-12.22-.06-21.09,5.76-1.31.86-7.46,5.03-11.85,13.15-3.82,7.08-4.3,13.45-4.56,17.45-.84,13.16,3.67,23.55,6.12,28.26,9.31,17.89,25.86,24.95,30.72,26.82,3.5,10.1,13.03,16.9,23.61,16.91h.03c10.58,0,20.1-6.81,23.61-16.91,4.86-1.87,21.41-8.94,30.72-26.82,2.45-4.71,6.97-15.1,6.12-28.26Z"/>
  <circle class="cls-3" cx="123.3" cy="85.84" r="6.91"/>
  <path class="cls-3" d="m166.22,125.52h0c-.58-.54-1.49-.54-2.07,0-3.06,2.89-7.76,2.97-10.93.21-1.64-1.43-2.62-3.41-2.77-5.58-.09-1.35.18-2.73.78-4.01,4.88-1.61,8.16-6.1,8.18-11.28,0-1.12-.74-2.07-1.78-2.38v-.12h-19.93c-1.2,0-2.21.86-2.44,2.01h-.06v.51c.03,5.2,3.34,9.7,8.27,11.28,1.41,3.24.58,7.06-2.07,9.38-3.17,2.77-7.87,2.68-10.93-.2-.58-.55-1.48-.55-2.07-.01-.58.54-.65,1.44-.15,2.06,2.34,2.91,5.83,4.58,9.58,4.58,2.78,0,5.51-.96,7.68-2.7.61-.49,1.17-1.06,1.74-1.76.61.79,1.21,1.42,1.88,1.95,2.21,1.77,4.86,2.71,7.67,2.71.45,0,.9-.02,1.35-.07,3.26-.35,6.19-1.96,8.23-4.51.5-.62.43-1.52-.15-2.06Z"/>
  <circle class="cls-3" cx="171.87" cy="85.84" r="6.91"/>
</svg>