<svg width="83" height="59" viewBox="0 0 83 59" fill="none" xmlns="http://www.w3.org/2000/svg">
<g clipPath="url(#clip0_1_398)">
<path d="M34.5478 6.36999C37.2215 3.5842 40.9437 1.85645 45.0602 1.85645C50.5329 1.85645 55.3074 4.90805 57.8497 9.43812C60.124 8.42207 62.5875 7.89845 65.0784 7.90163C74.9486 7.90163 82.9504 15.9731 82.9504 25.9295C82.9504 35.8873 74.9486 43.9591 65.0784 43.9591C63.8962 43.9597 62.7169 43.8421 61.5581 43.608C59.3188 47.6019 55.0523 50.3002 50.1549 50.3002C48.1744 50.3029 46.2195 49.8529 44.4394 48.9848C42.1697 54.3236 36.8814 58.0673 30.7179 58.0673C24.2997 58.0673 18.8299 54.0059 16.73 48.3102C15.8126 48.5053 14.8619 48.6068 13.8865 48.6068C6.24485 48.6068 0.0495952 42.348 0.0495952 34.626C0.0441554 32.1788 0.680121 29.7729 1.89412 27.648C3.10812 25.5232 4.85776 23.7536 6.96869 22.5155C6.09241 20.4976 5.64132 18.3208 5.64355 16.1209C5.64355 7.24035 12.8531 0.0415039 21.746 0.0415039C26.9668 0.0415039 31.6065 2.52389 34.5478 6.36999Z" fill="#00A1E0"/>
<path d="M12.0575 30.132C12.0057 30.2678 12.0763 30.296 12.0932 30.32C12.2488 30.4331 12.407 30.5145 12.5664 30.6052C13.4122 31.0542 14.2102 31.1855 15.0453 31.1855C16.7458 31.1855 17.8016 30.2811 17.8016 28.8247V28.7965C17.8016 27.4502 16.61 26.9611 15.4916 26.6084L15.3464 26.5608C14.5033 26.2868 13.7759 26.0509 13.7759 25.4956V25.4664C13.7759 24.9915 14.2008 24.6418 14.8598 24.6418C15.5921 24.6418 16.4612 24.8849 17.021 25.1944C17.021 25.1944 17.185 25.3008 17.2453 25.1413C17.2784 25.0564 17.5617 24.2936 17.5915 24.211C17.6233 24.1212 17.5665 24.055 17.5088 24.0197C16.8699 23.6307 15.9866 23.3652 15.0725 23.3652L14.9023 23.3665C13.346 23.3665 12.2595 24.3066 12.2595 25.6541V25.6823C12.2595 27.1031 13.4582 27.5634 14.5811 27.8846L14.762 27.9404C15.5801 28.1916 16.2855 28.4078 16.2855 28.9841V29.0123C16.2855 29.5391 15.8271 29.9313 15.0877 29.9313C14.8009 29.9313 13.8858 29.9255 12.8971 29.3005C12.7778 29.2308 12.7081 29.1803 12.616 29.1248C12.5674 29.094 12.4462 29.0405 12.393 29.2013L12.0575 30.132ZM36.9527 30.132C36.9008 30.2678 36.9715 30.296 36.9883 30.32C37.1439 30.4331 37.3021 30.5145 37.4616 30.6052C38.307 31.0542 39.1054 31.1855 39.9404 31.1855C41.6409 31.1855 42.6967 30.2811 42.6967 28.8247V28.7965C42.6967 27.4502 41.5051 26.9611 40.3868 26.6084L40.2415 26.5608C39.3984 26.2868 38.6707 26.0509 38.6707 25.4956V25.4664C38.6707 24.9915 39.096 24.6418 39.755 24.6418C40.4873 24.6418 41.3563 24.8849 41.9161 25.1944C41.9161 25.1944 42.0802 25.3008 42.1404 25.1413C42.1735 25.0564 42.4568 24.2936 42.4863 24.211C42.5184 24.1212 42.4617 24.055 42.4037 24.0197C41.7651 23.6307 40.8814 23.3652 39.9676 23.3652L39.7975 23.3665C38.2409 23.3665 37.1546 24.3066 37.1546 25.6541V25.6823C37.1546 27.1031 38.353 27.5634 39.4762 27.8846L39.6568 27.9404C40.4753 28.1916 41.1816 28.4078 41.1816 28.9841V29.0123C41.1816 29.5391 40.7219 29.9313 39.9829 29.9313C39.2071 29.9369 38.4463 29.7178 37.7922 29.3005C37.6729 29.2308 37.6019 29.1825 37.5125 29.1248C37.4817 29.1047 37.3374 29.049 37.2878 29.2013L36.9527 30.132ZM53.9478 27.2797C53.9478 28.1031 53.7942 28.7514 53.492 29.2094C53.1932 29.6633 52.741 29.8837 52.1102 29.8837C51.4784 29.8837 51.0285 29.6642 50.7345 29.2094C50.4369 28.7524 50.2858 28.1031 50.2858 27.2797C50.2858 26.458 50.4369 25.8107 50.7345 25.3575C51.0285 24.9085 51.4784 24.6901 52.1102 24.6901C52.741 24.6901 53.1929 24.9085 53.493 25.3572C53.7945 25.811 53.9478 26.458 53.9478 27.2797ZM55.3673 25.7539C55.2279 25.2829 55.0107 24.8674 54.7212 24.5212C54.4318 24.174 54.0658 23.8956 53.6311 23.6923C53.1977 23.4904 52.6852 23.3876 52.1102 23.3876C51.5338 23.3876 51.0213 23.4904 50.5879 23.6923C50.1536 23.8952 49.7873 24.174 49.4968 24.5212C49.2087 24.8683 48.9911 25.2842 48.8508 25.7539C48.7127 26.223 48.6433 26.7355 48.6433 27.2797C48.6433 27.8243 48.7127 28.3381 48.8508 28.8055C48.9915 29.2756 49.2074 29.6911 49.4981 30.0386C49.7946 30.3914 50.1672 30.6724 50.5879 30.8604C51.0223 31.0578 51.5338 31.1579 52.1102 31.1579C52.6852 31.1579 53.1967 31.0574 53.6311 30.8604C54.052 30.6724 54.4247 30.3915 54.7212 30.0386C55.0107 29.6924 55.2279 29.2769 55.3673 28.8055C55.5067 28.3368 55.5764 27.8233 55.5764 27.2797C55.5764 26.7368 55.5067 26.223 55.3673 25.7539ZM67.0236 29.6642C66.9766 29.5261 66.843 29.578 66.843 29.578C66.6365 29.6571 66.4168 29.7304 66.1831 29.767C65.9254 29.805 65.6652 29.8235 65.4048 29.8224C64.7175 29.8224 64.1717 29.6182 63.7807 29.2143C63.3888 28.8104 63.1691 28.1575 63.1713 27.2739C63.1739 26.47 63.3678 25.8651 63.7159 25.4045C64.0621 24.9465 64.5885 24.7115 65.2913 24.7115C65.8771 24.7115 66.3234 24.7786 66.7912 24.9264C66.7912 24.9264 66.9033 24.975 66.9565 24.8281C67.0803 24.4836 67.1727 24.2366 67.305 23.8576C67.3426 23.75 67.2505 23.704 67.2174 23.691C67.0333 23.619 66.5986 23.502 66.2703 23.4524C65.9633 23.4054 65.6044 23.3805 65.2051 23.3805C64.6086 23.3805 64.0773 23.4819 63.6226 23.6852C63.1691 23.8871 62.7843 24.1659 62.4796 24.5131C62.1749 24.8602 61.9434 25.2758 61.7888 25.7458C61.6352 26.2146 61.5574 26.7296 61.5574 27.2739C61.5574 28.4512 61.875 29.4033 62.5019 30.0999C63.1302 30.7991 64.0741 31.1544 65.3043 31.1544C66.0317 31.1544 66.7782 31.0069 67.314 30.7955C67.314 30.7955 67.4171 30.7459 67.3724 30.6266L67.0236 29.6642ZM69.5076 26.4914C69.5747 26.0343 69.7011 25.6541 69.8959 25.3578C70.1899 24.9079 70.6386 24.6609 71.2694 24.6609C71.8999 24.6609 72.3167 24.9089 72.6156 25.3578C72.814 25.6541 72.9002 26.0509 72.9342 26.4914H69.5076ZM74.2866 25.4865C74.166 25.0317 73.8672 24.5724 73.6714 24.3623C73.3618 24.0291 73.0597 23.7964 72.7595 23.6667C72.3241 23.4817 71.8556 23.3868 71.3825 23.3879C70.7828 23.3879 70.2382 23.4884 69.7967 23.6959C69.354 23.904 68.9818 24.1873 68.6901 24.5406C68.3983 24.8923 68.1789 25.3118 68.0395 25.7876C67.8988 26.2609 67.8281 26.7773 67.8281 27.3216C67.8281 27.8755 67.9014 28.3913 68.0466 28.8555C68.1928 29.3232 68.4269 29.7355 68.7436 30.0765C69.0586 30.4202 69.4648 30.6895 69.9514 30.8772C70.4344 31.0639 71.0211 31.1608 71.6953 31.1596C73.083 31.1547 73.8143 30.8454 74.1151 30.6788C74.1683 30.6497 74.2192 30.5975 74.1553 30.4487L73.8412 29.5689C73.7942 29.4376 73.6607 29.4863 73.6607 29.4863C73.3171 29.6137 72.8282 29.8428 71.6885 29.8406C70.9433 29.8393 70.3906 29.6195 70.0447 29.2759C69.6891 28.9242 69.5157 28.4071 69.4849 27.6772L74.2902 27.6817C74.2902 27.6817 74.4166 27.6794 74.4296 27.5566C74.4341 27.5047 74.5949 26.5692 74.2866 25.4865ZM31.0248 26.4914C31.0932 26.0343 31.2184 25.6541 31.4135 25.3578C31.7075 24.9079 32.1561 24.6609 32.7866 24.6609C33.4174 24.6609 33.8343 24.9089 34.1341 25.3578C34.3315 25.6541 34.4178 26.0509 34.4518 26.4914H31.0248ZM35.8029 25.4865C35.6823 25.0317 35.3847 24.5724 35.1886 24.3623C34.8794 24.0291 34.5769 23.7964 34.2771 23.6667C33.8416 23.4817 33.3732 23.3868 32.9001 23.3879C32.3014 23.3879 31.7558 23.4884 31.3143 23.6959C30.8712 23.904 30.4994 24.1873 30.2076 24.5406C29.9159 24.8923 29.6964 25.3118 29.5571 25.7876C29.4177 26.2609 29.3457 26.7773 29.3457 27.3216C29.3457 27.8755 29.4186 28.3913 29.5642 28.8555C29.7104 29.3232 29.9444 29.7355 30.2608 30.0765C30.5762 30.4202 30.9824 30.6895 31.4689 30.8772C31.9519 31.0639 32.5386 31.1608 33.2129 31.1596C34.6006 31.1547 35.3316 30.8454 35.6327 30.6788C35.6859 30.6497 35.7364 30.5975 35.6729 30.4487L35.3601 29.5689C35.3115 29.4376 35.1782 29.4863 35.1782 29.4863C34.8346 29.6137 34.3468 29.8428 33.2048 29.8406C32.4608 29.8393 31.9082 29.6195 31.5623 29.2759C31.2067 28.9242 31.0329 28.4071 31.0025 27.6772L35.8074 27.6817C35.8074 27.6817 35.9338 27.6794 35.9468 27.5566C35.9517 27.5047 36.1121 26.5692 35.8029 25.4865ZM20.6386 29.6376C20.4506 29.4879 20.4246 29.45 20.3611 29.353C20.2664 29.2055 20.2181 28.9952 20.2181 28.7284C20.2181 28.3057 20.3575 28.0023 20.6467 27.7981C20.6434 27.799 21.06 27.4376 22.0405 27.4506C22.7287 27.4603 23.344 27.5618 23.344 27.5618V29.7466H23.3453C23.3453 29.7466 22.7346 29.8775 22.0473 29.9187C21.0694 29.9777 20.635 29.6367 20.6386 29.6376ZM22.5504 26.2616C22.3556 26.2473 22.1031 26.2389 21.8007 26.2389C21.3883 26.2389 20.9903 26.2907 20.6175 26.3912C20.2575 26.4845 19.9174 26.6422 19.6136 26.8567C19.3235 27.0637 19.085 27.3348 18.9167 27.6489C18.7468 27.9656 18.6606 28.3388 18.6606 28.7566C18.6606 29.1819 18.7335 29.5514 18.88 29.8539C19.0229 30.1528 19.2386 30.4111 19.5073 30.6049C19.774 30.7997 20.1037 30.9427 20.4862 31.0289C20.8629 31.1151 21.2901 31.1586 21.7579 31.1586C22.2506 31.1586 22.7417 31.1187 23.2175 31.037C23.6225 30.9673 24.0261 30.8894 24.4279 30.8033C24.5874 30.7654 24.7647 30.7171 24.7647 30.7171C24.884 30.6876 24.8743 30.5599 24.8743 30.5599L24.872 26.1659C24.872 25.2022 24.6147 24.4878 24.108 24.045C23.6039 23.6032 22.861 23.3801 21.9008 23.3801C21.541 23.3801 20.9608 23.4297 20.6139 23.4994C20.6139 23.4994 19.5637 23.7024 19.1316 24.0401C19.1316 24.0401 19.0372 24.0991 19.0891 24.2314L19.4295 25.1455C19.4716 25.2635 19.5864 25.2233 19.5864 25.2233C19.5864 25.2233 19.623 25.2094 19.6655 25.1844C20.5899 24.6813 21.7592 24.6969 21.7592 24.6969C22.2788 24.6969 22.6778 24.8006 22.9472 25.0074C23.2094 25.2081 23.3427 25.5115 23.3427 26.1517V26.3546C22.9294 26.2956 22.5504 26.2616 22.5504 26.2616ZM61.3065 23.7853C61.3134 23.7693 61.317 23.7521 61.3171 23.7346C61.3172 23.7171 61.3138 23.6998 61.307 23.6837C61.3003 23.6676 61.2904 23.653 61.2778 23.6409C61.2653 23.6287 61.2505 23.6192 61.2342 23.6129C61.1528 23.5811 60.7441 23.4949 60.4286 23.4748C59.8254 23.4382 59.4899 23.5396 59.1901 23.6745C58.8925 23.809 58.5618 24.0262 58.3774 24.2732V23.6884C58.3774 23.6071 58.3197 23.5422 58.2393 23.5422H57.0075C56.9274 23.5422 56.8694 23.6071 56.8694 23.6884V30.8555C56.8694 30.9359 56.9356 31.002 57.0159 31.002H58.2782C58.2974 31.0019 58.3163 30.9981 58.334 30.9907C58.3516 30.9833 58.3677 30.9724 58.3812 30.9588C58.3946 30.9452 58.4053 30.9291 58.4126 30.9114C58.4198 30.8936 58.4235 30.8747 58.4234 30.8555V27.2749C58.4234 26.7945 58.4766 26.3147 58.5829 26.0139C58.6866 25.716 58.8286 25.4778 59.0033 25.3063C59.1703 25.1419 59.374 25.0197 59.5975 24.9497C59.8205 24.8813 60.0675 24.8589 60.2423 24.8589C60.4938 24.8589 60.77 24.9238 60.77 24.9238C60.862 24.9345 60.9142 24.8777 60.945 24.7941C61.0274 24.5743 61.2614 23.9163 61.3061 23.7853" fill="white"/>
<path d="M49.4553 20.4638C49.2993 20.4168 49.1407 20.3789 48.9804 20.3503C48.7646 20.3149 48.5462 20.2985 48.3275 20.301C47.4581 20.301 46.7732 20.5464 46.2928 21.0307C45.8143 21.5124 45.4895 22.246 45.3268 23.2107L45.2675 23.5355H44.1764C44.1764 23.5355 44.0441 23.5306 44.0159 23.6749L43.8376 24.6752C43.8247 24.7695 43.8658 24.8298 43.9932 24.8298H45.0552L43.978 30.8429C43.8944 31.3272 43.7974 31.7253 43.6898 32.0274C43.5848 32.3249 43.4824 32.5483 43.3547 32.7113C43.2315 32.8669 43.1161 32.983 42.9151 33.0501C42.7498 33.1058 42.5585 33.1318 42.3494 33.1318C42.2337 33.1318 42.0791 33.1126 41.9647 33.0893C41.8749 33.0718 41.7876 33.0435 41.7047 33.005C41.7047 33.005 41.5809 32.958 41.5313 33.0822C41.4924 33.1849 41.2087 33.9629 41.1747 34.0589C41.1416 34.1545 41.1886 34.2287 41.2489 34.2511C41.3906 34.3007 41.4956 34.3337 41.6882 34.3798C41.9553 34.4427 42.1809 34.4459 42.3922 34.4459C42.8337 34.4459 43.2376 34.3833 43.5718 34.2631C43.9073 34.1415 44.2001 33.9298 44.46 33.6439C44.7398 33.3347 44.9158 33.0112 45.0834 32.5684C45.25 32.1314 45.3929 31.5881 45.5061 30.9554L46.5891 24.8298H48.1716C48.1716 24.8298 48.3048 24.8344 48.3321 24.6891L48.5116 23.6901C48.5233 23.5945 48.4834 23.5355 48.3544 23.5355H46.8179C46.8264 23.5011 46.8961 22.9604 47.0721 22.4515C47.1476 22.2353 47.2893 22.0593 47.4085 21.939C47.5209 21.8245 47.6591 21.7386 47.8115 21.6884C47.9638 21.6388 48.1372 21.6152 48.3275 21.6152C48.4714 21.6152 48.6144 21.6317 48.7217 21.6541C48.8708 21.6862 48.9285 21.7027 48.9674 21.7144C49.1246 21.7617 49.1457 21.7157 49.1765 21.6398L49.5438 20.6317C49.5817 20.5231 49.4883 20.4767 49.4553 20.4638ZM27.989 30.8562C27.989 30.9363 27.931 31.0014 27.8509 31.0014H26.5767C26.4963 31.0014 26.4396 30.9366 26.4396 30.8562V20.6009C26.4396 20.5208 26.4963 20.4557 26.5767 20.4557H27.8506C27.931 20.4557 27.989 20.5205 27.989 20.6009V30.8562Z" fill="white"/>
</g>
<defs>
<clipPath id="clip0_1_398">
<rect width="83" height="58.348" fill="white"/>
</clipPath>
</defs>
</svg>
