<svg width="49" height="38" viewBox="0 0 49 38" fill="none" xmlns="http://www.w3.org/2000/svg">
<g clip-path="url(#clip0_659_1523)">
<path d="M34.9895 17.5885C34.1617 16.1796 32.9972 15.0501 31.5415 14.1997C30.4536 13.5732 29.3255 13.1756 28.0543 13.0048V8.52812C29.3255 7.99419 30.1144 6.81238 30.1144 5.43365C30.1144 3.55443 28.591 2.03159 26.6928 2.03159C24.7931 2.03159 23.243 3.55443 23.243 5.43365C23.243 6.81238 23.9864 7.99419 25.2576 8.52812V13.0069C24.2407 13.1522 23.1861 13.4659 22.223 13.9477C20.2559 12.4699 13.8058 7.62171 10.0326 4.79006C10.1221 4.4709 10.191 4.14194 10.191 3.79487C10.191 1.71344 8.48711 0.0263672 6.38224 0.0263672C4.27738 0.0263672 2.57422 1.71344 2.57422 3.79487C2.57422 5.87629 4.27916 7.56361 6.38403 7.56361C7.10201 7.56361 7.76608 7.35587 8.33914 7.01434L9.13543 7.6119L20.0769 15.4105C19.4986 15.9358 18.9598 16.5334 18.5289 17.2039C17.6556 18.5708 17.1219 20.0748 17.1219 21.7154V22.0576C17.1219 23.2093 17.3431 24.2965 17.7199 25.3179C18.0517 26.2097 18.5368 27.0205 19.1375 27.7537L15.5062 31.3546C14.9799 31.1609 14.4084 31.1211 13.8599 31.2401C13.3114 31.3591 12.8091 31.6318 12.4131 32.0257C12.1389 32.2956 11.9216 32.6166 11.7738 32.9702C11.6259 33.3237 11.5504 33.7028 11.5517 34.0855C11.552 34.8633 11.8583 35.5945 12.4146 36.1445C12.6873 36.4159 13.0117 36.6311 13.369 36.7777C13.7264 36.9242 14.1095 36.9991 14.4964 36.9981C14.8833 36.9992 15.2666 36.9243 15.6241 36.7778C15.9816 36.6313 16.3061 36.416 16.5788 36.1445C16.853 35.8747 17.0704 35.5538 17.2183 35.2004C17.3663 34.847 17.4419 34.468 17.4407 34.0855C17.4407 33.7844 17.3937 33.4907 17.3052 33.2115L21.0586 29.4981C21.5732 29.8497 22.1289 30.1457 22.7264 30.401C23.9048 30.905 25.2055 31.212 26.629 31.212H26.8899C28.4636 31.212 29.9481 30.8464 31.3437 30.0984C32.8142 29.3079 33.9651 28.227 34.8346 26.847C35.7087 25.4632 36.19 23.9343 36.19 22.2523V22.1683C36.19 20.5137 35.8028 18.9871 34.9895 17.5885ZM30.4035 25.3782C29.3847 26.4982 28.2137 27.188 26.8899 27.188H26.6717C25.9156 27.188 25.176 26.9813 24.4519 26.6053C23.6358 26.1913 23.0155 25.6008 22.5078 24.8531C21.983 24.1192 21.6982 23.3179 21.6982 22.4683V22.2103C21.6982 21.3751 21.8602 20.5831 22.2685 19.8351C22.705 19.0175 23.2946 18.3817 24.0787 17.8762C24.8486 17.3742 25.6708 17.128 26.5865 17.128H26.6717C27.5021 17.128 28.2882 17.2899 29.0301 17.6654C29.7859 18.0658 30.4035 18.6128 30.8822 19.3324C31.3472 20.0522 31.6238 20.8286 31.7128 21.6744C31.7268 21.8502 31.7339 22.0302 31.7339 22.2023C31.7339 23.3501 31.2905 24.4132 30.4035 25.3782Z" fill="#F8761F"/>
</g>
<defs>
<clipPath id="clip0_659_1523">
<rect width="48.0641" height="37.4737" fill="white" transform="translate(-0.0078125 0.0263672)"/>
</clipPath>
</defs>
</svg>
