<svg width="107" height="31" viewBox="0 0 107 31" fill="none" xmlns="http://www.w3.org/2000/svg">
<g clipPath="url(#clip0_1_388)">
<path d="M0.0133057 5.72192H3.74409V13.9213H11.6125V5.72192H15.3481V25.8489H11.6125V17.4773H3.74409V25.8489H0.0133057V5.72192ZM27.1672 19.2932C27.1672 20.9781 25.7796 22.3492 24.0768 22.3492C22.3733 22.3492 20.9865 20.9781 20.9865 19.2932V10.6279H17.4484V19.2932C17.4484 22.9084 20.422 25.8489 24.0768 25.8489C27.7306 25.8489 30.7041 22.9084 30.7041 19.2932V10.6279H27.1672V19.2932ZM40.581 10.7294C38.826 10.7294 37.6009 11.2332 36.4179 12.382V5.72192H32.8683V18.0648C32.8683 22.6849 36.245 25.8489 40.0387 25.8489C44.2562 25.8489 47.9515 22.6284 47.9515 18.2894C47.9515 14.0053 44.544 10.7294 40.581 10.7294ZM40.6692 22.6005C38.264 22.6005 36.4248 20.6134 36.4248 18.2894C36.4248 15.9649 38.264 13.9771 40.6692 13.9771C42.7072 13.9771 44.5476 15.9649 44.5476 18.2894C44.5476 20.6134 42.7072 22.6005 40.6692 22.6005ZM53.9132 11.614C53.9132 9.84891 55.1021 9.28929 56.4036 9.28929C57.4515 9.28929 58.8381 10.0732 59.743 11.0254L62.0633 8.3377C60.9037 6.79796 58.5549 5.73371 56.6302 5.73371C52.7805 5.73371 50.0066 7.94574 50.0066 11.614C50.0066 18.4175 58.4699 16.2609 58.4699 20.0697C58.4699 21.2444 57.3098 22.2813 55.9802 22.2813C53.885 22.2813 53.2053 21.2733 52.2434 20.2091L49.6672 22.8406C51.3099 24.8287 53.347 25.8371 55.7815 25.8371C59.4324 25.8371 62.3762 23.5972 62.3762 20.0968C62.3762 12.5375 53.9132 14.8896 53.9132 11.614ZM71.7207 10.5322C67.9274 10.5322 64.5502 13.6943 64.5502 18.3154V30.6902H68.0996V23.9985C69.2829 25.1464 70.5073 25.6511 72.263 25.6511C76.2258 25.6511 79.6337 22.3756 79.6337 18.0915C79.6337 13.7518 75.9374 10.5322 71.7207 10.5322ZM72.3514 22.4037C69.9464 22.4037 68.1069 20.4139 68.1069 18.0915C68.1069 15.767 69.9464 13.7793 72.3514 13.7793C74.389 13.7793 76.2295 15.767 76.2295 18.0915C76.2295 20.4139 74.389 22.4037 72.3514 22.4037ZM105.761 22.6005C103.667 22.6005 103.073 21.705 103.073 20.3325V14.257H106.327V11.1776H103.073V7.11736L99.4796 8.71292V21.0885C99.4796 24.2527 101.686 25.8489 104.714 25.8489C105.166 25.8489 105.79 25.82 106.13 25.7371L107.007 22.5455C106.611 22.5726 106.159 22.6005 105.761 22.6005Z" fill="#45535E"/>
<path d="M96.3989 14.4359C95.7185 13.2778 94.7613 12.3493 93.5647 11.6504C92.6705 11.1354 91.7432 10.8086 90.6983 10.6682V6.98836C91.7432 6.54947 92.3917 5.57804 92.3917 4.44473C92.3917 2.90003 91.1394 1.64827 89.5792 1.64827C88.0176 1.64827 86.7435 2.90003 86.7435 4.44473C86.7435 5.57804 87.3545 6.54947 88.3994 6.98836V10.6698C87.5635 10.7893 86.6966 11.0471 85.905 11.4432C84.2881 10.2285 78.9862 6.2433 75.8847 3.91571C75.9582 3.65336 76.0149 3.38296 76.0149 3.09767C76.0149 1.38676 74.6142 0 72.8841 0C71.1539 0 69.7539 1.38676 69.7539 3.09767C69.7539 4.80858 71.1554 6.19554 72.8855 6.19554C73.4757 6.19554 74.0216 6.02478 74.4926 5.74404L75.1472 6.23524L84.141 12.6456C83.6655 13.0774 83.2227 13.5686 82.8685 14.1198C82.1506 15.2434 81.712 16.4796 81.712 17.8281V18.1095C81.712 19.0561 81.8938 19.9498 82.2035 20.7894C82.4762 21.5224 82.875 22.1889 83.3688 22.7916L80.3839 25.7515C79.9513 25.5922 79.4815 25.5595 79.0306 25.6574C78.5797 25.7552 78.1669 25.9793 77.8414 26.3031C77.616 26.525 77.4374 26.7888 77.3158 27.0795C77.1943 27.3701 77.1323 27.6817 77.1333 27.9962C77.1335 28.6357 77.3854 29.2366 77.8426 29.6887C78.0667 29.9119 78.3334 30.0888 78.6271 30.2092C78.9209 30.3296 79.2358 30.3912 79.5538 30.3904C79.8719 30.3913 80.1869 30.3298 80.4808 30.2093C80.7746 30.0889 81.0414 29.9119 81.2656 29.6887C81.4909 29.467 81.6696 29.2032 81.7912 28.9127C81.9128 28.6222 81.975 28.3107 81.974 27.9962C81.974 27.7488 81.9354 27.5073 81.8626 27.2778L84.9479 24.2254C85.3709 24.5145 85.8277 24.7578 86.3188 24.9676C87.2874 25.3819 88.3566 25.6343 89.5267 25.6343H89.7411C91.0347 25.6343 92.255 25.3337 93.4021 24.7189C94.6109 24.0692 95.5569 23.1806 96.2717 22.0463C96.9901 20.9088 97.3858 19.6521 97.3858 18.2695V18.2005C97.3858 16.8404 97.0675 15.5855 96.3989 14.4359ZM92.6293 20.839C91.7919 21.7596 90.8293 22.3266 89.7411 22.3266H89.5618C88.9403 22.3266 88.3324 22.1567 87.7372 21.8476C87.0663 21.5073 86.5564 21.0219 86.1391 20.4073C85.7077 19.8041 85.4737 19.1454 85.4737 18.4471V18.235C85.4737 17.5484 85.6068 16.8974 85.9424 16.2826C86.3013 15.6105 86.7859 15.0879 87.4304 14.6724C88.0632 14.2597 88.739 14.0573 89.4918 14.0573H89.5618C90.2444 14.0573 90.8905 14.1905 91.5004 14.4991C92.1217 14.8282 92.6293 15.2779 93.0228 15.8693C93.405 16.461 93.6324 17.0992 93.7056 17.7944C93.717 17.9389 93.7229 18.087 93.7229 18.2284C93.7229 19.1719 93.3584 20.0457 92.6293 20.839Z" fill="#F8761F"/>
</g>
<defs>
<clipPath id="clip0_1_388">
<rect width="107" height="30.803" fill="white"/>
</clipPath>
</defs>
</svg>
