<svg width="47" height="45" viewBox="0 0 47 45" fill="none" xmlns="http://www.w3.org/2000/svg">
<g clipPath="url(#clip0_1_342)">
<path d="M25.361 43.8158H7.27004C3.9713 43.8158 1.29712 41.3745 1.29712 38.3631V10.0698C1.29712 7.05835 3.9713 4.61707 7.27004 4.61707H25.3608C28.6596 4.61707 31.3337 7.05835 31.3337 10.0698V38.3632C31.3337 41.3745 28.6597 43.8158 25.361 43.8158Z" fill="white" stroke="#FB5DA5" strokeWidth="1.9" stroke-miterlimit="10" strokeLinecap="round" strokeLinejoin="round"/>
<path d="M35.1754 10.3898C35.7781 10.976 36.1134 11.7497 36.1134 12.5536V34.3911C36.1134 37.3983 33.5039 39.8361 30.2849 39.8361H11.9054C8.68637 39.8361 6.0769 37.3983 6.0769 34.3911V6.62919C6.0769 3.622 8.68637 1.1842 11.9054 1.1842H24.3272C25.2839 1.1842 26.198 1.54544 26.8527 2.18228L35.1754 10.3898Z" fill="white" stroke="black" strokeWidth="1.9" stroke-miterlimit="10" strokeLinecap="round" strokeLinejoin="round"/>
<path d="M12.2581 13.7341H17.8394" stroke="black" strokeWidth="1.9" stroke-miterlimit="10" strokeLinecap="round" strokeLinejoin="round"/>
<path d="M12.2579 25.9995V29.0301" stroke="black" strokeWidth="1.9" stroke-miterlimit="10" strokeLinecap="round" strokeLinejoin="round"/>
<path d="M16.719 23.7909V29.0302" stroke="black" strokeWidth="1.9" stroke-miterlimit="10" strokeLinecap="round" strokeLinejoin="round"/>
<path d="M21.1801 22.4597V29.0302" stroke="black" strokeWidth="1.9" stroke-miterlimit="10" strokeLinecap="round" strokeLinejoin="round"/>
<path d="M34.1565 12.0005H28.5626C26.5557 12.0005 24.9288 10.5153 24.9288 8.68318V2.99487C24.9288 2.02983 26.2253 1.56575 26.9439 2.27352L35.0091 10.2179C35.6988 10.8972 35.171 12.0005 34.1565 12.0005Z" fill="white" stroke="black" strokeWidth="1.9" stroke-miterlimit="10" strokeLinecap="round" strokeLinejoin="round"/>
<path d="M36.1134 33.0836C41.4095 33.0836 45.7028 29.1642 45.7028 24.3294C45.7028 19.4946 41.4095 15.5752 36.1134 15.5752C30.8174 15.5752 26.524 19.4946 26.524 24.3294C26.524 29.1642 30.8174 33.0836 36.1134 33.0836Z" fill="white" stroke="#FB5DA5" strokeWidth="1.9" stroke-miterlimit="10" strokeLinecap="round" strokeLinejoin="round"/>
<path d="M36.1134 24.3294L30.2015 17.4367C31.8887 16.2307 33.9707 15.5752 36.1134 15.5752C41.374 15.5752 45.7028 19.527 45.7028 24.3294H36.1134Z" fill="white" stroke="black" strokeWidth="1.9" stroke-miterlimit="10" strokeLinecap="round" strokeLinejoin="round"/>
</g>
<defs>
<clipPath id="clip0_1_342">
<rect width="47" height="45" fill="white"/>
</clipPath>
</defs>
</svg>
