<svg width="47" height="45" viewBox="0 0 47 45" fill="none" xmlns="http://www.w3.org/2000/svg">
<g clipPath="url(#clip0_1_361)">
<path d="M30.8522 6.49414H34.5897C36.6635 6.49414 38.3445 8.05272 38.3445 9.97521V16.0861" stroke="black" strokeWidth="1.9" stroke-miterlimit="10" strokeLinecap="round" strokeLinejoin="round"/>
<path d="M30.8522 39.8754H34.5897C36.6635 39.8754 38.3445 38.3169 38.3445 36.3944V30.2834" stroke="black" strokeWidth="1.9" stroke-miterlimit="10" strokeLinecap="round" strokeLinejoin="round"/>
<path d="M22.8088 12.0162V34.6991" stroke="black" strokeWidth="1.9" stroke-miterlimit="10" strokeLinecap="round" strokeLinejoin="round"/>
<path d="M30.8521 22.678H17.4259" stroke="#FB5DA5" strokeWidth="1.9" stroke-miterlimit="10" strokeLinecap="round" strokeLinejoin="round"/>
<path d="M45.0966 24.3242L39.8526 29.186C39.0196 29.9583 37.6688 29.9583 36.8357 29.186L31.5917 24.3242C30.7586 23.5519 30.7586 22.2996 31.5917 21.5272L36.8357 16.6655C37.6688 15.8931 39.0196 15.8931 39.8526 16.6655L45.0966 21.5272C45.9298 22.2996 45.9298 23.5519 45.0966 24.3242Z" fill="white" stroke="#FB5DA5" strokeWidth="1.9" stroke-miterlimit="10" strokeLinecap="round" strokeLinejoin="round"/>
<path d="M14.9179 28.3412H3.78633C2.40113 28.3412 1.27832 27.3001 1.27832 26.016V19.8355C1.27832 18.5512 2.40126 17.5103 3.78633 17.5103H14.9179C16.3031 17.5103 17.4259 18.5513 17.4259 19.8355V26.016C17.4259 27.3001 16.303 28.3412 14.9179 28.3412Z" fill="white" stroke="#FB5DA5" strokeWidth="1.9" stroke-miterlimit="10" strokeLinecap="round" strokeLinejoin="round"/>
<path d="M36.7006 22.9257H39.9882" stroke="#FB5DA5" strokeWidth="1.9" stroke-miterlimit="10" strokeLinecap="round" strokeLinejoin="round"/>
<path d="M12.1046 21.0826H12.5327" stroke="#FB5DA5" strokeWidth="1.9" stroke-miterlimit="10" strokeLinecap="round" strokeLinejoin="round"/>
<path d="M6.23254 21.0826H8.37333" stroke="#FB5DA5" strokeWidth="1.9" stroke-miterlimit="10" strokeLinecap="round" strokeLinejoin="round"/>
<path d="M6.23254 24.7119H12.5326" stroke="#FB5DA5" strokeWidth="1.9" stroke-miterlimit="10" strokeLinecap="round" strokeLinejoin="round"/>
<path d="M28.3439 12.0162H17.2124C15.8272 12.0162 14.7043 10.9752 14.7043 9.69105V3.51038C14.7043 2.22614 15.8273 1.18518 17.2124 1.18518H28.3439C29.7291 1.18518 30.8519 2.22627 30.8519 3.51038V9.69092C30.8521 10.9752 29.7291 12.0162 28.3439 12.0162Z" fill="white" stroke="black" strokeWidth="1.9" stroke-miterlimit="10" strokeLinecap="round" strokeLinejoin="round"/>
<path d="M28.5512 43.8148H17.0053C15.7346 43.8148 14.7043 42.8598 14.7043 41.6816V36.8322C14.7043 35.654 15.7344 34.699 17.0053 34.699H28.5512C29.8219 34.699 30.8521 35.654 30.8521 36.8322V41.6816C30.8521 42.8598 29.8219 43.8148 28.5512 43.8148Z" fill="white" stroke="black" strokeWidth="1.9" stroke-miterlimit="10" strokeLinecap="round" strokeLinejoin="round"/>
<path d="M25.5306 4.75769H25.9588" stroke="black" strokeWidth="1.9" stroke-miterlimit="10" strokeLinecap="round" strokeLinejoin="round"/>
<path d="M19.6587 4.75769H21.7995" stroke="black" strokeWidth="1.9" stroke-miterlimit="10" strokeLinecap="round" strokeLinejoin="round"/>
<path d="M19.6587 8.38696H25.9587" stroke="black" strokeWidth="1.9" stroke-miterlimit="10" strokeLinecap="round" strokeLinejoin="round"/>
<path d="M19.6587 39.2283H25.9587" stroke="black" strokeWidth="1.9" stroke-miterlimit="10" strokeLinecap="round" strokeLinejoin="round"/>
</g>
<defs>
<clipPath id="clip0_1_361">
<rect width="47" height="45" fill="white"/>
</clipPath>
</defs>
</svg>
